<svg width="182" height="166" viewBox="0 0 182 166" fill="none" xmlns="http://www.w3.org/2000/svg">
<path d="M66.0796 33.9678V7.71777H131.193" stroke="#F46A12" stroke-width="15"/>
<path d="M128.125 7.54755C128.125 7.54755 157.102 4.99069 162.045 37.377C166.989 69.7634 132.386 81.8656 132.386 81.8656" stroke="#F46A12" stroke-width="15"/>
<path d="M130.16 82.7646C130.16 82.7646 164.914 80.2446 170.842 112.165C176.771 144.085 144.872 156.013 135.271 156.013C125.67 156.013 67.2529 156.013 67.2529 156.013" stroke="#F46A12" stroke-width="19" stroke-linecap="round"/>
<path d="M67.2729 82.7178L138.352 82.8882" stroke="#F46A12" stroke-width="20" stroke-linecap="round"/>
<rect x="25.2275" y="48.627" width="62.0455" height="12.6136" rx="6.30682" fill="#F46A12"/>
<rect x="34.4316" y="119.536" width="62.0455" height="12.6136" rx="6.30682" fill="#BFC9D1"/>
<rect y="103.514" width="30.6818" height="12.6136" rx="6.30682" fill="#F46A12"/>
<rect x="15.3408" y="76.582" width="30.6818" height="12.6136" rx="6.30682" fill="#BFC9D1"/>
</svg>
